<svg width="187" height="130" viewBox="0 0 187 130" fill="none" xmlns="http://www.w3.org/2000/svg">
<line x1="116.462" y1="0.190014" x2="63.4625" y2="129.19" stroke="#373229"/>
<rect y="34" width="187" height="59" fill="white"/>
<path d="M27.376 73.012C27.768 73.572 28.0667 73.9453 28.272 74.132C28.4773 74.3 28.7573 74.3933 29.112 74.412V75C28.8507 75 28.636 74.9907 28.468 74.972C26.34 74.916 24.9587 74.888 24.324 74.888C23.6147 74.888 22.196 74.916 20.068 74.972C19.9 74.9907 19.6947 75 19.452 75V74.412C20.068 74.412 20.5067 74.3747 20.768 74.3C21.048 74.2253 21.188 74.104 21.188 73.936C21.188 73.8053 21.1227 73.6467 20.992 73.46L16.316 66.796L14.608 68.924C13.656 70.1187 13.18 71.2107 13.18 72.2C13.18 72.8533 13.3853 73.376 13.796 73.768C14.2067 74.16 14.776 74.384 15.504 74.44V75C14.44 74.944 12.8253 74.916 10.66 74.916C9.46533 74.916 8.56 74.944 7.944 75V74.44C9.4 73.824 10.9493 72.4987 12.592 70.464L15.952 66.264L9.568 57.136C9.176 56.576 8.87733 56.212 8.672 56.044C8.46667 55.8573 8.18667 55.7547 7.832 55.736V55.148C8.112 55.148 8.34533 55.1573 8.532 55.176C10.716 55.232 12.172 55.26 12.9 55.26C13.5347 55.26 14.832 55.232 16.792 55.176C16.96 55.1573 17.1653 55.148 17.408 55.148V55.736C16.792 55.736 16.344 55.7733 16.064 55.848C15.8027 55.9227 15.672 56.044 15.672 56.212C15.672 56.3427 15.7373 56.5013 15.868 56.688L19.928 62.456L21.524 60.496C22.4573 59.3947 22.924 58.4147 22.924 57.556C22.924 57.0333 22.756 56.6133 22.42 56.296C22.084 55.9787 21.5987 55.792 20.964 55.736V55.176C22.028 55.232 23.2693 55.26 24.688 55.26C25.8827 55.26 26.788 55.232 27.404 55.176V55.736C26.8067 55.96 26.172 56.3707 25.5 56.968C24.828 57.5467 24.2027 58.1907 23.624 58.9L20.292 62.988L27.376 73.012ZM46.7104 61.084C46.1318 61.084 45.7211 61.2333 45.4784 61.532C45.2544 61.812 45.1424 62.3347 45.1424 63.1V72.396C45.1424 73.1613 45.2544 73.6933 45.4784 73.992C45.7211 74.272 46.1318 74.412 46.7104 74.412V75C44.6944 74.9253 43.3878 74.888 42.7904 74.888C42.1558 74.888 40.8304 74.9253 38.8144 75V74.412C39.2998 74.412 39.6358 74.272 39.8224 73.992C40.0091 73.6933 40.1024 73.1613 40.1024 72.396V63.968L35.5944 72.844C35.6318 73.4413 35.7438 73.852 35.9304 74.076C36.1171 74.3 36.4344 74.412 36.8824 74.412V75C35.0158 74.9253 33.7838 74.888 33.1864 74.888C32.5518 74.888 31.1518 74.9253 28.9864 75V74.412C29.5651 74.412 29.9664 74.272 30.1904 73.992C30.4331 73.6933 30.5544 73.1613 30.5544 72.396V63.1C30.5544 62.3347 30.4331 61.812 30.1904 61.532C29.9664 61.2333 29.5651 61.084 28.9864 61.084V60.496C31.0024 60.5707 32.3091 60.608 32.9064 60.608C33.5411 60.608 34.8664 60.5707 36.8824 60.496V61.084C36.3971 61.084 36.0611 61.2333 35.8744 61.532C35.6878 61.812 35.5944 62.3347 35.5944 63.1V71.612L40.1024 62.792C40.0838 62.1387 39.9718 61.6907 39.7664 61.448C39.5798 61.2053 39.2624 61.084 38.8144 61.084V60.496C40.6811 60.5707 41.9131 60.608 42.5104 60.608C43.1451 60.608 44.5451 60.5707 46.7104 60.496V61.084ZM63.533 60.496C63.4023 62.1387 63.337 63.5947 63.337 64.864C63.337 65.7227 63.365 66.3947 63.421 66.88H62.777C62.4596 65.5733 62.0863 64.4907 61.657 63.632C61.2276 62.7547 60.7796 62.1107 60.313 61.7C59.865 61.2893 59.445 61.084 59.053 61.084H58.241V72.116C58.241 72.9747 58.437 73.572 58.829 73.908C59.2396 74.244 59.8463 74.412 60.649 74.412V75L59.837 74.972C57.709 74.916 56.3463 74.888 55.749 74.888C55.1143 74.888 53.733 74.916 51.605 74.972L50.793 75V74.412C51.6516 74.412 52.2676 74.2907 52.641 74.048C53.0143 73.7867 53.201 73.236 53.201 72.396V61.084H52.389C51.997 61.084 51.5676 61.2893 51.101 61.7C50.653 62.1107 50.2143 62.7547 49.785 63.632C49.3556 64.4907 48.9823 65.5733 48.665 66.88H48.021C48.077 66.3947 48.105 65.7227 48.105 64.864C48.105 63.5947 48.0396 62.1387 47.909 60.496H51.073L52.613 60.524C53.509 60.58 54.5356 60.608 55.693 60.608C56.8876 60.608 57.933 60.58 58.829 60.524L60.369 60.496H63.533ZM88.1231 61.084C87.5444 61.084 87.1338 61.2333 86.8911 61.532C86.6671 61.812 86.5551 62.3347 86.5551 63.1V72.396C86.5551 73.1613 86.6671 73.6933 86.8911 73.992C87.1338 74.272 87.5444 74.412 88.1231 74.412V75C86.1071 74.9253 84.8004 74.888 84.2031 74.888C83.5684 74.888 82.2431 74.9253 80.2271 75V74.412C80.7124 74.412 81.0484 74.272 81.2351 73.992C81.4218 73.6933 81.5151 73.1613 81.5151 72.396V63.1C81.5151 62.3347 81.4218 61.812 81.2351 61.532C81.0484 61.2333 80.7124 61.084 80.2271 61.084H78.8551C78.3698 61.084 78.0338 61.2333 77.8471 61.532C77.6604 61.812 77.5671 62.3347 77.5671 63.1V72.396C77.5671 73.1613 77.6604 73.6933 77.8471 73.992C78.0338 74.272 78.3698 74.412 78.8551 74.412V75C76.9884 74.9253 75.7564 74.888 75.1591 74.888C74.5244 74.888 73.1244 74.9253 70.9591 75V74.412C71.5378 74.412 71.9391 74.272 72.1631 73.992C72.4058 73.6933 72.5271 73.1613 72.5271 72.396V63.1C72.5271 62.3347 72.4058 61.812 72.1631 61.532C71.9391 61.2333 71.5378 61.084 70.9591 61.084V60.496C72.9751 60.5707 74.2818 60.608 74.8791 60.608C75.1964 60.608 75.7658 60.5893 76.5871 60.552C77.6324 60.5147 78.5751 60.496 79.4151 60.496C80.2551 60.496 81.1791 60.5147 82.1871 60.552C82.9711 60.5893 83.5498 60.608 83.9231 60.608C84.5578 60.608 85.9578 60.5707 88.1231 60.496V61.084ZM100.087 60.076C101.543 60.076 102.719 60.6733 103.615 61.868C104.511 63.0627 104.959 64.808 104.959 67.104C104.959 70.072 104.361 72.2 103.167 73.488C101.972 74.7573 100.395 75.392 98.4348 75.392C97.3521 75.392 96.4841 75.2147 95.8308 74.86V77.184C95.8308 78.0427 96.0268 78.64 96.4188 78.976C96.8294 79.312 97.4361 79.48 98.2388 79.48V80.068L97.4268 80.04C95.1868 79.984 93.7401 79.956 93.0868 79.956C92.5268 79.956 91.2388 79.9933 89.2228 80.068V79.48C89.8014 79.48 90.2028 79.3307 90.4268 79.032C90.6694 78.752 90.7908 78.2293 90.7908 77.464V63.548C90.7908 62.6893 90.6694 62.064 90.4268 61.672C90.2028 61.28 89.8014 61.084 89.2228 61.084V60.496C89.8014 60.552 90.3801 60.58 90.9588 60.58C92.9001 60.58 94.5241 60.4493 95.8308 60.188V62.176C96.6894 60.776 98.1081 60.076 100.087 60.076ZM96.8108 74.552C97.8374 74.552 98.5748 74.0013 99.0228 72.9C99.4894 71.78 99.7228 70.0627 99.7228 67.748C99.7228 65.452 99.5548 63.8467 99.2188 62.932C98.8828 61.9987 98.4254 61.532 97.8468 61.532C97.3054 61.532 96.8294 61.728 96.4188 62.12C96.0268 62.4933 95.8308 62.9693 95.8308 63.548V74.328C96.0734 74.4773 96.4001 74.552 96.8108 74.552ZM113.927 60.076C116.223 60.076 117.997 60.6827 119.247 61.896C120.498 63.0907 121.123 65.0413 121.123 67.748C121.123 70.4547 120.498 72.4053 119.247 73.6C117.997 74.7947 116.223 75.392 113.927 75.392C111.631 75.392 109.858 74.7947 108.607 73.6C107.357 72.4053 106.731 70.4547 106.731 67.748C106.731 65.0413 107.357 63.0907 108.607 61.896C109.858 60.6827 111.631 60.076 113.927 60.076ZM113.927 60.636C113.33 60.636 112.854 61.224 112.499 62.4C112.145 63.576 111.967 65.3587 111.967 67.748C111.967 70.1373 112.145 71.92 112.499 73.096C112.854 74.2533 113.33 74.832 113.927 74.832C114.525 74.832 115.001 74.2533 115.355 73.096C115.71 71.92 115.887 70.1373 115.887 67.748C115.887 65.3587 115.71 63.576 115.355 62.4C115.001 61.224 114.525 60.636 113.927 60.636ZM135.537 74.412C135.406 75.644 135.341 76.7267 135.341 77.66C135.341 78.4067 135.369 78.9853 135.425 79.396H134.781C134.445 77.772 133.922 76.6333 133.213 75.98C132.522 75.3267 131.523 75 130.217 75H125.625C124.318 75 123.31 75.3267 122.601 75.98C121.91 76.6333 121.397 77.772 121.061 79.396H120.417C120.473 78.9853 120.501 78.4067 120.501 77.66C120.501 76.7267 120.435 75.644 120.305 74.412H120.837C121.415 74.412 121.929 74.2253 122.377 73.852C122.825 73.46 123.189 72.956 123.469 72.34C123.954 71.276 124.29 70.0627 124.477 68.7C124.663 67.3187 124.85 65.452 125.037 63.1C125.093 62.3533 124.934 61.8307 124.561 61.532C124.206 61.2333 123.627 61.084 122.825 61.084V60.496C123.235 60.5333 123.842 60.552 124.645 60.552C124.999 60.552 125.279 60.5427 125.485 60.524L127.305 60.496C128.033 60.496 128.826 60.5147 129.685 60.552C130.394 60.5893 130.879 60.608 131.141 60.608C131.645 60.608 132.83 60.5707 134.697 60.496V61.084C134.193 61.084 133.847 61.224 133.661 61.504C133.493 61.7653 133.409 62.288 133.409 63.072V72.396C133.409 73.1613 133.567 73.6933 133.885 73.992C134.202 74.272 134.753 74.412 135.537 74.412ZM128.369 63.1C128.369 62.3347 128.275 61.812 128.089 61.532C127.902 61.2333 127.566 61.084 127.081 61.084H126.829C126.474 61.084 126.222 61.1493 126.073 61.28C125.923 61.392 125.821 61.56 125.765 61.784C125.727 62.008 125.681 62.4467 125.625 63.1L125.541 64.08C125.354 66.1893 125.158 67.8693 124.953 69.12C124.766 70.352 124.458 71.4627 124.029 72.452C123.599 73.3853 123.077 74.0387 122.461 74.412H126.521C127.211 74.412 127.687 74.272 127.949 73.992C128.229 73.6933 128.369 73.1613 128.369 72.396V63.1ZM140.005 75.196C138.811 75.196 137.905 74.8787 137.289 74.244C136.692 73.5907 136.393 72.7787 136.393 71.808C136.393 70.968 136.608 70.2773 137.037 69.736C137.485 69.176 138.008 68.7467 138.605 68.448C139.203 68.1493 139.977 67.8413 140.929 67.524C141.937 67.188 142.675 66.88 143.141 66.6C143.608 66.32 143.841 65.928 143.841 65.424V62.932C143.841 62.3347 143.692 61.8027 143.393 61.336C143.095 60.8693 142.581 60.636 141.853 60.636C141.275 60.636 140.752 60.7947 140.285 61.112C140.92 61.336 141.387 61.672 141.685 62.12C142.003 62.5493 142.161 63.0347 142.161 63.576C142.161 64.304 141.9 64.892 141.377 65.34C140.873 65.7693 140.257 65.984 139.529 65.984C138.801 65.984 138.223 65.76 137.793 65.312C137.383 64.8453 137.177 64.2573 137.177 63.548C137.177 62.988 137.317 62.5027 137.597 62.092C137.877 61.6813 138.316 61.308 138.913 60.972C139.959 60.3747 141.452 60.076 143.393 60.076C144.42 60.076 145.307 60.1787 146.053 60.384C146.8 60.5707 147.435 60.9347 147.957 61.476C148.331 61.868 148.573 62.3627 148.685 62.96C148.816 63.5387 148.881 64.3507 148.881 65.396V72.9C148.881 73.3667 148.909 73.684 148.965 73.852C149.04 74.02 149.161 74.104 149.329 74.104C149.46 74.104 149.6 74.0667 149.749 73.992C149.899 73.8987 150.039 73.796 150.169 73.684L150.449 74.16C149.647 74.8507 148.499 75.196 147.005 75.196C145.885 75.196 145.101 75.0093 144.653 74.636C144.205 74.244 143.963 73.7213 143.925 73.068C143.048 74.4867 141.741 75.196 140.005 75.196ZM142.805 72.956C143.197 72.956 143.543 72.7973 143.841 72.48V66.572C143.673 66.852 143.365 67.216 142.917 67.664C142.413 68.1493 142.031 68.6253 141.769 69.092C141.508 69.54 141.377 70.156 141.377 70.94C141.377 72.284 141.853 72.956 142.805 72.956ZM174.48 72.872C174.704 73.4133 174.9 73.796 175.068 74.02C175.255 74.2253 175.535 74.356 175.908 74.412V75C175.124 75.112 174.378 75.168 173.668 75.168C172.306 75.168 171.279 74.9347 170.588 74.468C169.898 73.9827 169.403 73.1893 169.104 72.088C169.086 71.976 169.011 71.6773 168.88 71.192C168.768 70.688 168.6 70.2027 168.376 69.736C168.171 69.2693 167.928 68.8867 167.648 68.588C167.2 68.1027 166.622 67.8413 165.912 67.804V72.396C165.912 73.1613 166.006 73.6933 166.192 73.992C166.379 74.272 166.715 74.412 167.2 74.412V75C165.184 74.9253 163.887 74.888 163.308 74.888C162.692 74.888 161.451 74.9253 159.584 75V74.412C160.07 74.412 160.406 74.272 160.592 73.992C160.779 73.6933 160.872 73.1613 160.872 72.396V67.776C160.126 67.8133 159.538 68.084 159.108 68.588C158.474 69.316 157.988 70.4827 157.652 72.088C157.428 73.1893 156.934 73.9827 156.168 74.468C155.422 74.9347 154.386 75.168 153.06 75.168C152.37 75.168 151.632 75.112 150.848 75V74.412C151.222 74.356 151.492 74.2253 151.66 74.02C151.847 73.796 152.052 73.4133 152.276 72.872C152.463 72.4053 152.678 71.7987 152.92 71.052C153.144 70.3987 153.331 69.904 153.48 69.568C153.63 69.2133 153.826 68.8867 154.068 68.588C154.927 67.6173 156.262 67.132 158.072 67.132C158.558 67.132 159.006 67.16 159.416 67.216C158.987 66.992 158.66 66.684 158.436 66.292C158.212 65.8813 157.998 65.284 157.792 64.5L157.596 63.66C157.391 62.8573 157.214 62.2693 157.064 61.896C156.915 61.5227 156.691 61.2333 156.392 61.028C156.112 60.8227 155.692 60.7013 155.132 60.664C155.692 60.9627 156.103 61.3267 156.364 61.756C156.626 62.1853 156.756 62.6333 156.756 63.1C156.756 63.8467 156.467 64.4067 155.888 64.78C155.328 65.1533 154.712 65.34 154.04 65.34C153.312 65.34 152.715 65.116 152.248 64.668C151.782 64.2013 151.548 63.5667 151.548 62.764C151.548 61.9427 151.81 61.2893 152.332 60.804C152.874 60.3187 153.686 60.076 154.768 60.076C155.552 60.076 156.15 60.216 156.56 60.496C156.99 60.776 157.307 61.168 157.512 61.672C157.736 62.176 157.979 62.96 158.24 64.024C158.446 64.8267 158.623 65.424 158.772 65.816C158.94 66.208 159.183 66.5253 159.5 66.768C159.818 67.0107 160.275 67.1787 160.872 67.272V63.1C160.872 62.3347 160.751 61.812 160.508 61.532C160.284 61.2333 159.883 61.084 159.304 61.084V60.496C161.47 60.5707 162.879 60.608 163.532 60.608C164.148 60.608 165.464 60.5707 167.48 60.496V61.084C166.902 61.084 166.491 61.2333 166.248 61.532C166.024 61.812 165.912 62.3347 165.912 63.1V67.244C166.472 67.1693 166.902 67.02 167.2 66.796C167.518 66.5533 167.76 66.236 167.928 65.844C168.115 65.4333 168.311 64.8267 168.516 64.024C168.778 62.96 169.011 62.176 169.216 61.672C169.44 61.168 169.758 60.776 170.168 60.496C170.598 60.216 171.204 60.076 171.988 60.076C173.071 60.076 173.874 60.3187 174.396 60.804C174.938 61.2893 175.208 61.9427 175.208 62.764C175.208 63.5667 174.975 64.2013 174.508 64.668C174.042 65.116 173.444 65.34 172.716 65.34C172.044 65.34 171.419 65.1533 170.84 64.78C170.28 64.4067 170 63.8467 170 63.1C170 62.6333 170.131 62.1853 170.392 61.756C170.654 61.3267 171.064 60.9627 171.624 60.664C171.064 60.7013 170.635 60.832 170.336 61.056C170.038 61.28 169.814 61.588 169.664 61.98C169.515 62.372 169.338 62.9787 169.132 63.8L168.964 64.5C168.759 65.284 168.544 65.8813 168.32 66.292C168.096 66.684 167.779 66.992 167.368 67.216C167.816 67.16 168.283 67.132 168.768 67.132C170.542 67.132 171.848 67.6173 172.688 68.588C172.95 68.8867 173.155 69.2227 173.304 69.596C173.472 69.9693 173.659 70.4733 173.864 71.108C174.07 71.7613 174.275 72.3493 174.48 72.872Z" fill="#373229"/>
</svg>
